Coordinates
version=1
nRows=5
nColumns=107
inDegrees=yes

Units are S.I. units (second, meters, Newtons, ...)
If the header above contains a line with 'inDegrees', this indicates whether rotational values are in degrees (yes) or radians (no).

endheader
time	sternoclavicular_r2	sternoclavicular_r3	unrotscap_r3	unrotscap_r2	acromioclavicular_r2	acromioclavicular_r3	acromioclavicular_r1	unrothum_r1	unrothum_r3	unrothum_r2	elv_angle	shoulder_elv	shoulder1_r2	shoulder_rot	elbow_flexion	pro_sup	deviation	flexion	proximal_distal_r1	proximal_distal_r3	cmc_flexion	cmc_abduction	mp_flexion	ip_flexion	mcp2_flexion	mcp2_abduction	pm2_flexion	md2_flexion	mcp3_flexion	mcp3_abduction	pm3_flexion	md3_flexion	mcp4_flexion	mcp4_abduction	pm4_flexion	md4_flexion	mcp5_flexion	mcp5_abduction	pm5_flexion	md5_flexion	bicpt_tx	bicpt_ty	bicpt_tz	bicpt2_tx	bicpt2_ty	bicpt2_tz	ptpt_tx	ptpt_ty	ptpt_tz	FCUpt_tx	FCUpt_ty	FCUpt_tz	EDCpt_tx	EDCpt_ty	EDCpt_tz	APLpt_tx	APLpt_ty	APLpt_tz	FPLpt_tx	FPLpt_ty	FPLpt_tz	FPLpt2_tx	FPLpt2_ty	FPLpt2_tz	PEC1pt2_tx	PEC1pt2_ty	PEC1pt2_tz	PEC1pt3_tx	PEC1pt3_ty	PEC1pt3_tz	PEC2pt2_tx	PEC2pt2_ty	PEC2pt2_tz	PEC2pt3_tx	PEC2pt3_ty	PEC2pt3_tz	PEC3pt2_tx	PEC3pt2_ty	PEC3pt2_tz	PEC3pt3_tx	PEC3pt3_ty	PEC3pt3_tz	DELT2pt2a_tx	DELT2pt2a_ty	DELT2pt2a_tz	DELT2pt2_tx	DELT2pt2_ty	DELT2pt2_tz	LAT1pt2_tx	LAT1pt2_ty	LAT1pt2_tz	LAT1pt3_tx	LAT1pt3_ty	LAT1pt3_tz	LAT2pt2_tx	LAT2pt2_ty	LAT2pt2_tz	LAT2pt3_tx	LAT2pt3_ty	LAT2pt3_tz	LAT3pt2_tx	LAT3pt2_ty	LAT3pt2_tz	LAT3pt3_tx	LAT3pt3_ty	LAT3pt3_tz
      1.66666667	     -0.32012820	      0.13559119	     -0.13559119	      0.32012820	     -0.06481945	      0.52384798	      0.23546606	     -0.23546606	     -0.52384798	      0.06481945	     99.58274337	     75.79319582	     -1.73804675	    -27.03729089	     30.83555983	     62.27759323	      0.27076634	     -0.10107259	      0.30745994	     -0.05053630	     19.96513622	    -11.28485166	    -31.15857366	     -1.01579704	     12.26430687	      2.91324395	     30.52355885	    -14.29638609	     19.65660701	     -3.25607997	     13.96964908	     15.97273943	     17.59002252	     -7.89776788	     11.75148700	     24.89799619	     12.15110934	    -12.71216379	     10.66778176	      5.12632187	      0.00091994	     -0.03113423	     -0.00486927	      0.01604833	     -0.01857663	     -0.00474394	      0.00294839	     -0.06787548	     -0.00506679	      0.01009971	     -0.18296118	     -0.00035769	     -0.00747329	      0.00236306	     -0.00014800	      0.00009486	      0.00003794	      0.00018971	      0.00012142	      0.00036425	      0.00020489	      0.00001191	     -0.00027768	     -0.00033322	      0.00248433	      0.00871622	      0.00606346	     -0.00812672	      0.01962203	     -0.01861146	      0.00248433	      0.00871622	      0.00606346	      0.00054740	      0.01819038	     -0.00955837	      0.00393377	      0.00484698	      0.01593288	      0.00000000	      0.00768210	      0.00000000	     -0.00711614	     -0.03288585	     -0.00633369	      0.01750595	     -0.00065727	     -0.00611115	     -0.00088425	      0.01482179	     -0.00606346	      0.00244223	      0.02139054	     -0.01768509	     -0.00593714	      0.01284275	     -0.00543185	     -0.01237957	      0.02711714	     -0.03035941	     -0.02324327	      0.01435861	     -0.00728457	     -0.01541130	      0.03132788	     -0.03793874
      1.70000000	     -0.32082718	      0.13588725	     -0.13588725	      0.32082718	     -0.06496098	      0.52499177	      0.23598019	     -0.23598019	     -0.52499177	      0.06496098	     99.43474086	     75.95868574	     -1.73546362	    -26.24791509	     30.71736521	     61.69949443	      0.28417733	     -0.09114071	      0.31956939	     -0.04557035	     19.19756989	    -11.20575632	    -32.53935219	     -0.95305846	     12.30232807	      2.81223680	     30.38111723	    -13.99368266	     19.88810359	     -3.54298114	     13.90542635	     15.54043626	     17.55662353	     -8.11610368	     11.35312723	     24.11066420	     11.97817777	    -12.82704162	     10.37499928	      5.12881570	      0.00091604	     -0.03112068	     -0.00486709	      0.01607633	     -0.01854452	     -0.00482347	      0.00299110	     -0.06784786	     -0.00502023	      0.01003758	     -0.18297681	     -0.00036316	     -0.00740392	      0.00233562	     -0.00013696	      0.00008629	      0.00003452	      0.00017259	      0.00011046	      0.00033137	      0.00018639	      0.00001380	     -0.00027519	     -0.00033023	      0.00248976	      0.00873526	      0.00607670	     -0.00814447	      0.01966488	     -0.01865209	      0.00248976	      0.00873526	      0.00607670	      0.00054859	      0.01823010	     -0.00957924	      0.00394005	      0.00485757	      0.01594831	      0.00000000	      0.00771592	      0.00000000	     -0.00713168	     -0.03295766	     -0.00636177	      0.01712057	     -0.00063114	     -0.00576064	     -0.00088619	      0.01485416	     -0.00607670	      0.00244756	      0.02143725	     -0.01772371	     -0.00595010	      0.01287079	     -0.00544371	     -0.01240660	      0.02717635	     -0.03042570	     -0.02329402	      0.01438996	     -0.00730048	     -0.01544495	      0.03139628	     -0.03802157
      1.73333333	     -0.32099806	      0.13595963	     -0.13595963	      0.32099806	     -0.06499558	      0.52527140	      0.23610588	     -0.23610588	     -0.52527140	      0.06499558	     99.39341742	     75.99914508	     -1.73474239	    -26.26795909	     30.70063898	     61.70301696	      0.28424777	     -0.09121066	      0.31963149	     -0.04560533	     19.19364382	    -11.20596514	    -32.54143752	     -0.95363070	     12.29985373	      2.81200340	     30.38049025	    -13.99408611	     19.88628419	     -3.54344085	     13.90542724	     15.54036194	     17.55334918	     -8.11676344	     11.35176782	     24.11035066	     11.97438664	    -12.82737002	     10.37305554	      5.12871397	      0.00091548	     -0.03111876	     -0.00486678	      0.01607616	     -0.01853998	     -0.00482299	      0.00299084	     -0.06784803	     -0.00502051	      0.01003796	     -0.18297672	     -0.00036313	     -0.00740434	      0.00233579	     -0.00013702	      0.00008635	      0.00003454	      0.00017271	      0.00011053	      0.00033160	      0.00018652	      0.00001381	     -0.00027518	     -0.00033021	      0.00249109	      0.00873991	      0.00607994	     -0.00814880	      0.01967535	     -0.01866203	      0.00249109	      0.00873991	      0.00607994	      0.00054888	      0.01823981	     -0.00958434	      0.00394158	      0.00486015	      0.01595208	      0.00000000	      0.00772420	      0.00000000	     -0.00713548	     -0.03297521	     -0.00636864	      0.01713046	     -0.00063180	     -0.00576944	     -0.00088666	      0.01486207	     -0.00607994	      0.00244886	      0.02144867	     -0.01773315	     -0.00595327	      0.01287764	     -0.00544661	     -0.01241320	      0.02719083	     -0.03044191	     -0.02330642	      0.01439763	     -0.00730437	     -0.01545317	      0.03141301	     -0.03804183
      1.76666667	     -0.31910404	      0.13515741	     -0.13515741	      0.31910404	     -0.06461208	      0.52217208	      0.23471275	     -0.23471275	     -0.52217208	      0.06461208	     99.83472607	     75.55071745	     -1.74244468	    -28.32186594	     30.79306193	     63.51572454	      0.27750042	     -0.09656520	      0.31357740	     -0.04828260	     18.72660470	    -11.59491623	    -33.75279622	     -2.13126540	     12.22848294	      2.58227927	     29.07244443	    -14.91231795	     19.87636798	     -3.91347079	     13.59815591	     15.19690539	     16.91438648	     -8.39146094	     11.14873471	     23.86611135	     11.47893949	    -12.95694902	      9.65671225	      5.16578181	      0.00091854	     -0.03112936	     -0.00486849	      0.01598581	     -0.01856509	     -0.00457203	      0.00285690	     -0.06793463	     -0.00516653	      0.01023311	     -0.18292737	     -0.00034514	     -0.00762187	      0.00242217	     -0.00017225	      0.00009106	      0.00003643	      0.00018213	      0.00011656	      0.00034969	      0.00019670	      0.00001496	     -0.00027343	     -0.00032812	      0.00247639	      0.00868834	      0.00604406	     -0.00810072	      0.01955926	     -0.01855191	      0.00247639	      0.00868834	      0.00604406	      0.00054564	      0.01813219	     -0.00952779	      0.00392454	      0.00483148	      0.01591016	      0.00000000	      0.00763269	      0.00000000	     -0.00709338	     -0.03278064	     -0.00629266	      0.01811589	     -0.00070021	     -0.00669851	     -0.00088143	      0.01477438	     -0.00604406	      0.00243441	      0.02132211	     -0.01762852	     -0.00591814	      0.01280166	     -0.00541447	     -0.01233996	      0.02703039	     -0.03026229	     -0.02316891	      0.01431268	     -0.00726127	     -0.01536199	      0.03122766	     -0.03781736
      1.80000000	     -0.31916825	      0.13518461	     -0.13518461	      0.31916825	     -0.06462508	      0.52227715	      0.23475998	     -0.23475998	     -0.52227715	      0.06462508	     99.80873218	     75.56592005	     -1.74199100	    -28.33395756	     30.77912152	     63.51696058	      0.27753097	     -0.09657989	      0.31360436	     -0.04828995	     18.72511486	    -11.59496446	    -33.75365954	     -2.13151692	     12.22778236	      2.58138646	     29.07228124	    -14.91247297	     19.87672317	     -3.91362381	     13.59830692	     15.19686692	     16.91366259	     -8.39189195	     11.14826481	     23.86588227	     11.47606260	    -12.95704978	      9.65523459	      5.16564143	      0.00091808	     -0.03112776	     -0.00486823	      0.01598572	     -0.01856130	     -0.00457184	      0.00285681	     -0.06793469	     -0.00516663	      0.01023324	     -0.18292734	     -0.00034512	     -0.00762202	      0.00242223	     -0.00017227	      0.00009100	      0.00003640	      0.00018201	      0.00011648	      0.00034945	      0.00019657	      0.00001497	     -0.00027333	     -0.00032800	      0.00247689	      0.00869009	      0.00604528	     -0.00810235	      0.01956319	     -0.01855565	      0.00247689	      0.00869009	      0.00604528	      0.00054575	      0.01813584	     -0.00952971	      0.00392512	      0.00483245	      0.01591159	      0.00000000	      0.00763579	      0.00000000	     -0.00709481	     -0.03278724	     -0.00629524	      0.01812090	     -0.00070063	     -0.00670474	     -0.00088160	      0.01477735	     -0.00604528	      0.00243490	      0.02132640	     -0.01763206	     -0.00591934	      0.01280424	     -0.00541556	     -0.01234244	      0.02703583	     -0.03026837	     -0.02317357	      0.01431556	     -0.00726273	     -0.01536508	      0.03123394	     -0.03782497
